<svg width="56" height="56" viewBox="0 0 56 56" fill="none" xmlns="http://www.w3.org/2000/svg">
<path fill-rule="evenodd" clip-rule="evenodd" d="M5.60039 11.8995C5.21441 11.8995 4.90039 11.5855 4.90039 11.1995C4.90039 10.8135 5.21441 10.4995 5.60039 10.4995C5.98637 10.4995 6.30039 10.8135 6.30039 11.1995C6.30039 11.5855 5.98637 11.8995 5.60039 11.8995Z" fill="#ECECFE"/>
<path fill-rule="evenodd" clip-rule="evenodd" d="M45.5008 50.3995C45.1148 50.3995 44.8008 50.0855 44.8008 49.6995C44.8008 49.3135 45.1148 48.9995 45.5008 48.9995C45.8868 48.9995 46.2008 49.3135 46.2008 49.6995C46.2008 50.0855 45.8868 50.3995 45.5008 50.3995Z" fill="#ECECFE"/>
<path fill-rule="evenodd" clip-rule="evenodd" d="M46.2 7.69956C45.814 7.69956 45.5 7.38554 45.5 6.99956C45.5 6.61355 45.814 6.29956 46.2 6.29956C46.586 6.29956 46.9 6.61355 46.9 6.99956C46.9 7.38554 46.586 7.69956 46.2 7.69956Z" fill="#ECECFE"/>
<path fill-rule="evenodd" clip-rule="evenodd" d="M14.7 53.8995C14.314 53.8995 14 53.5855 14 53.1995C14 52.8135 14.314 52.4995 14.7 52.4995C15.086 52.4995 15.4 52.8135 15.4 53.1995C15.4 53.5855 15.086 53.8995 14.7 53.8995Z" fill="#ECECFE"/>
<path d="M28.0006 25.5846L33.9051 19.6801C34.4792 19.106 35.41 19.106 35.984 19.6801C36.5248 20.2208 36.5595 21.0844 36.0598 21.677L35.984 21.759L30.0795 27.6635L36.656 34.2401L36.7318 34.322C37.2315 34.9147 37.1968 35.7782 36.656 36.319C36.082 36.893 35.1512 36.893 34.5771 36.319L28.0006 29.7424L21.424 36.319C20.85 36.893 19.9192 36.893 19.3451 36.319C18.8044 35.7782 18.7697 34.9147 19.2694 34.322L19.3451 34.2401L25.9217 27.6635L20.0171 21.759L19.9414 21.677C19.4417 21.0844 19.4764 20.2208 20.0171 19.6801C20.5912 19.106 21.522 19.106 22.096 19.6801L28.0006 25.5846Z" fill="#E1000F"/>
<path d="M39.9004 8.39941C44.0855 8.39941 47.4907 11.7382 47.5978 15.8975L47.6004 16.0994V20.2994C47.6004 20.686 47.287 20.9994 46.9004 20.9994C46.5414 20.9994 46.2455 20.7292 46.2051 20.381L46.2004 20.2994V16.0994C46.2004 12.6822 43.4796 9.90036 40.0861 9.8021L39.9004 9.79941H16.1004C12.6831 9.79941 9.90134 12.5202 9.80308 15.9137L9.80039 16.0994V39.8994C9.80039 43.3167 12.5212 46.0985 15.9146 46.1967L16.1004 46.1994H39.9004C43.3176 46.1994 46.0994 43.4786 46.1977 40.0852L46.2004 39.8994V30.0994C46.2004 29.7128 46.5138 29.3994 46.9004 29.3994C47.2594 29.3994 47.5552 29.6696 47.5957 30.0178L47.6004 30.0994V39.8994C47.6004 44.0845 44.2616 47.4898 40.1023 47.5968L39.9004 47.5994H16.1004C11.9153 47.5994 8.51003 44.2606 8.40299 40.1013L8.40039 39.8994V16.0994C8.40039 11.9143 11.7392 8.50906 15.8985 8.40201L16.1004 8.39941H39.9004Z" fill="#000091"/>
<path d="M49.0004 21.6994C49.0004 21.3128 49.3138 20.9994 49.7004 20.9994C50.087 20.9994 50.4004 21.3128 50.4004 21.6994C50.4004 22.086 50.087 22.3994 49.7004 22.3994C49.3138 22.3994 49.0004 22.086 49.0004 21.6994Z" fill="#000091"/>
<path d="M50.3957 24.4178C50.3552 24.0696 50.0594 23.7994 49.7004 23.7994C49.3138 23.7994 49.0004 24.1128 49.0004 24.4994V35.6994L49.0051 35.781C49.0455 36.1292 49.3414 36.3994 49.7004 36.3994C50.087 36.3994 50.4004 36.086 50.4004 35.6994V24.4994L50.3957 24.4178Z" fill="#000091"/>
</svg>
