<svg width="64" height="64" viewBox="0 0 64 64" fill="none" xmlns="http://www.w3.org/2000/svg">
<path fill-rule="evenodd" clip-rule="evenodd" d="M54.4 10.3994C53.9588 10.3994 53.6 10.0405 53.6 9.59941C53.6 9.15826 53.9588 8.79941 54.4 8.79941C54.8411 8.79941 55.2 9.15826 55.2 9.59941C55.2 10.0405 54.8411 10.3994 54.4 10.3994ZM32.8 60.7994C32.3588 60.7994 32 60.4405 32 59.9994C32 59.5583 32.3588 59.1994 32.8 59.1994C33.2411 59.1994 33.6 59.5583 33.6 59.9994C33.6 60.4405 33.2411 60.7994 32.8 60.7994ZM12 7.99941C11.5588 7.99941 11.2 7.64053 11.2 7.19941C11.2 6.75826 11.5588 6.39941 12 6.39941C12.4411 6.39941 12.8 6.75826 12.8 7.19941C12.8 7.64053 12.4411 7.99941 12 7.99941Z" fill="#ECECFE"/>
<path fill-rule="evenodd" clip-rule="evenodd" d="M42.4 35.1996C42.8418 35.1996 43.2 35.5578 43.2 35.9996V43.9996C43.2 44.4414 42.8418 44.7996 42.4 44.7996H34.4C33.9581 44.7996 33.6 44.4414 33.6 43.9996V35.9996C33.6 35.5578 33.9581 35.1996 34.4 35.1996H42.4ZM37.6 40.7996H35.2V43.1996H37.6V40.7996ZM41.6 40.7996H39.2V43.1996H41.6V40.7996ZM37.6 36.7996H35.2V39.1996H37.6V36.7996ZM41.6 36.7996H39.2V39.1996H41.6V36.7996ZM36 25.5996C36.4418 25.5996 36.8 25.9578 36.8 26.3996C36.8 26.8414 36.4418 27.1996 36 27.1996H28C27.5581 27.1996 27.2 26.8414 27.2 26.3996C27.2 25.9578 27.5581 25.5996 28 25.5996H36Z" fill="#E1000F"/>
<path fill-rule="evenodd" clip-rule="evenodd" d="M23.1999 14.3994C23.6417 14.3994 23.9999 14.7576 23.9999 15.1994C23.9999 15.6412 23.6417 15.9994 23.1999 15.9994H17.5999V17.5994H19.9999C20.4102 17.5994 20.7483 17.9082 20.7945 18.3061L20.7999 18.3994C20.7999 18.8412 20.4417 19.1994 19.9999 19.1994H19.1999V21.377L31.648 15.281L31.7342 15.2448C31.7476 15.2402 31.7544 15.238 31.7614 15.2358C31.8403 15.211 31.9204 15.1992 31.9997 15.1992C32.0794 15.1992 32.1595 15.211 32.2378 15.2355L32.2487 15.2391L32.2656 15.2448L32.3518 15.281L51.9518 24.881C52.3405 25.0714 52.5073 25.5364 52.3282 25.9305L50.3282 30.3305C50.1382 30.7484 49.6362 30.9211 49.2293 30.7084L47.9999 30.0658V33.9759C47.9999 34.4177 47.6417 34.7759 47.1999 34.7759C46.7581 34.7759 46.3999 34.4177 46.3999 33.9759V29.3186L31.9999 21.7042L17.5999 29.3178V47.9994H20.7999V35.9994C20.7999 35.5576 21.1581 35.1994 21.5999 35.1994H29.5999C30.0417 35.1994 30.3999 35.5576 30.3999 35.9994V47.9994H39.1999C39.6417 47.9994 39.9999 48.3576 39.9999 48.7994C39.9999 49.2412 39.6417 49.5994 39.1999 49.5994H7.1999C6.75807 49.5994 6.3999 49.2412 6.3999 48.7994C6.3999 48.3576 6.75807 47.9994 7.1999 47.9994H9.5999L9.60018 46.3491C7.53142 46.0756 6.3999 44.6943 6.3999 42.3994C6.3999 40.1104 7.49973 36.8109 9.68436 32.4416L9.6951 32.4202L9.7167 32.3826L9.74551 32.339C9.75458 32.326 9.76413 32.3133 9.77408 32.3008C9.78398 32.2884 9.79423 32.2762 9.80479 32.2645C9.814 32.2542 9.8238 32.2438 9.8339 32.2337C9.84433 32.2233 9.85468 32.2135 9.86525 32.204C9.87672 32.1937 9.88884 32.1835 9.90131 32.1736L9.93957 32.1449L9.9823 32.1162L10.0421 32.0839L10.0516 32.0792C10.0687 32.0709 10.0863 32.0632 10.1041 32.0561L10.1203 32.0498L10.1368 32.0438C10.1498 32.0394 10.1625 32.0353 10.1754 32.0316C10.1929 32.0263 10.2106 32.0217 10.2284 32.0178L10.2442 32.0147C10.2938 32.0046 10.3436 31.9996 10.3932 31.9993H10.4066C10.4362 31.9995 10.4659 32.0014 10.4955 32.0049L10.5556 32.0147L10.5715 32.018C10.5892 32.0217 10.6069 32.0263 10.6245 32.0315L10.6436 32.0374L10.6627 32.0438C10.674 32.0477 10.685 32.0518 10.6959 32.0561C10.7135 32.0632 10.7311 32.0709 10.7484 32.0793L10.7577 32.0839L10.8159 32.1162L10.8603 32.145C10.8733 32.1541 10.8861 32.1636 10.8986 32.1736C10.911 32.1835 10.9231 32.1937 10.9348 32.2043C10.9451 32.2135 10.9555 32.2233 10.9656 32.2334C10.976 32.2438 10.9858 32.2542 10.9953 32.2648C11.0056 32.2762 11.0158 32.2884 11.0257 32.3008L11.0544 32.3391L11.0823 32.3818L11.1039 32.4202L11.1154 32.4416C13.3001 36.8109 14.3999 40.1104 14.3999 42.3994C14.3999 44.694 13.2687 46.0752 11.2004 46.349L11.1999 47.9994H15.9999V30.0658L14.7705 30.7084C14.3636 30.9211 13.8616 30.7484 13.6716 30.3305L11.6716 25.9305C11.4925 25.5364 11.6593 25.0714 12.048 24.881L17.7617 22.0819C17.6601 21.9477 17.5999 21.7806 17.5999 21.5994V19.1994H16.7999C16.3581 19.1994 15.9999 18.8412 15.9999 18.3994V15.1994C15.9999 14.7576 16.3581 14.3994 16.7999 14.3994H23.1999ZM52.0471 36.8008C52.2358 36.8119 52.4214 36.8895 52.5656 37.0337C53.7989 38.267 54.3999 40.0701 54.3999 42.3994C54.3999 44.4689 53.8997 45.8382 52.8007 46.2607L52.7999 47.9994H55.1999C55.6417 47.9994 55.9999 48.3576 55.9999 48.7994C55.9999 49.2412 55.6417 49.5994 55.1999 49.5994H43.9999C43.5581 49.5994 43.1999 49.2412 43.1999 48.7994C43.1999 48.3576 43.5581 47.9994 43.9999 47.9994H46.3999V39.1994C46.3999 38.7576 46.7581 38.3994 47.1999 38.3994C47.6417 38.3994 47.9999 38.7576 47.9999 39.1994V47.9994H51.1999L51.1999 46.261C50.1003 45.8389 49.5999 44.4694 49.5999 42.3994C49.5999 40.0701 50.2009 38.267 51.4342 37.0337C51.5784 36.8895 51.764 36.8119 51.9527 36.8008H52.0471ZM28.7999 36.7994H22.3999V47.9994H28.7999V36.7994ZM52.0005 38.8892L51.9725 38.934C51.4618 39.7974 51.1999 40.9464 51.1999 42.3994C51.1999 44.0804 51.5012 44.7477 51.9459 44.7965L51.9999 44.7994L52.0539 44.7965C52.4986 44.7477 52.7999 44.0804 52.7999 42.3994C52.7999 40.9211 52.5288 39.7575 52.0005 38.8892ZM10.3998 34.6341L10.2412 34.9765C8.74395 38.235 7.9999 40.7214 7.9999 42.3994C7.9999 44.0909 8.7084 44.7994 10.3999 44.7994L10.5658 44.797C12.1379 44.7511 12.7999 44.0345 12.7999 42.3994C12.7999 40.6631 12.0033 38.0613 10.3998 34.6341ZM26.3999 39.9994C26.8417 39.9994 27.1999 40.3576 27.1999 40.7994V42.3994C27.1999 42.8412 26.8417 43.1994 26.3999 43.1994C25.9581 43.1994 25.5999 42.8412 25.5999 42.3994V40.7994C25.5999 40.3576 25.9581 39.9994 26.3999 39.9994ZM31.9991 16.8898L13.4495 25.9754L14.7775 28.8978L31.6293 20.0904L31.6597 20.0753L31.6727 20.069L31.6829 20.0648L31.6911 20.061L31.7375 20.0436C31.7518 20.0387 31.766 20.0342 31.7803 20.0302C31.7871 20.028 31.7944 20.026 31.8017 20.0242L31.8288 20.0179C31.8415 20.0151 31.8542 20.0126 31.8671 20.0105C31.8776 20.0085 31.8878 20.007 31.898 20.0057L31.9166 20.0037C31.9289 20.0024 31.9412 20.0014 31.9535 20.0006L31.9663 19.9999L32.021 19.9995L32.0399 20.0003C32.0552 20.0011 32.0704 20.0023 32.0856 20.0039C32.0887 20.0043 32.0924 20.0048 32.0961 20.0052C32.1115 20.0069 32.1219 20.0085 32.1324 20.0102C32.1399 20.0117 32.147 20.013 32.1541 20.0144L32.1685 20.0172L32.1798 20.0197C32.1833 20.0207 32.1872 20.0216 32.1912 20.0226C32.2057 20.0261 32.2132 20.0282 32.2207 20.0303C32.2266 20.0322 32.2329 20.0341 32.2392 20.036L32.2623 20.0436L32.3169 20.0648L32.3311 20.0714L32.345 20.0776L32.3705 20.0904L49.2223 28.8978L50.5503 25.9754L31.9991 16.8898Z" fill="#000091"/>
</svg>
