<svg width="64" height="64" viewBox="0 0 64 64" fill="none" xmlns="http://www.w3.org/2000/svg">
<path fill-rule="evenodd" clip-rule="evenodd" d="M57.6 9.59951C57.1589 9.59951 56.8 9.24063 56.8 8.79951C56.8 8.35835 57.1589 7.99951 57.6 7.99951C58.0412 7.99951 58.4 8.35835 58.4 8.79951C58.4 9.24063 58.0412 9.59951 57.6 9.59951Z" fill="#ECECFE"/>
<path fill-rule="evenodd" clip-rule="evenodd" d="M52 19.1996C51.5588 19.1996 51.2 18.8407 51.2 18.3996C51.2 17.9585 51.5588 17.5996 52 17.5996C52.4411 17.5996 52.8 17.9585 52.8 18.3996C52.8 18.8407 52.4411 19.1996 52 19.1996Z" fill="#ECECFE"/>
<path fill-rule="evenodd" clip-rule="evenodd" d="M10.4001 56.7995C9.95898 56.7995 9.6001 56.4406 9.6001 55.9995C9.6001 55.5583 9.95898 55.1995 10.4001 55.1995C10.8412 55.1995 11.2001 55.5583 11.2001 55.9995C11.2001 56.4406 10.8412 56.7995 10.4001 56.7995Z" fill="#ECECFE"/>
<path fill-rule="evenodd" clip-rule="evenodd" d="M53.6 59.9994C53.1589 59.9994 52.8 59.6405 52.8 59.1994C52.8 58.7583 53.1589 58.3994 53.6 58.3994C54.0412 58.3994 54.4 58.7583 54.4 59.1994C54.4 59.6405 54.0412 59.9994 53.6 59.9994Z" fill="#ECECFE"/>
<path fill-rule="evenodd" clip-rule="evenodd" d="M45.6 6.39956C45.1589 6.39956 44.8 6.04068 44.8 5.59956C44.8 5.1584 45.1589 4.79956 45.6 4.79956C46.0412 4.79956 46.4 5.1584 46.4 5.59956C46.4 6.04068 46.0412 6.39956 45.6 6.39956Z" fill="#ECECFE"/>
<path fill-rule="evenodd" clip-rule="evenodd" d="M5.60005 11.1996C5.15893 11.1996 4.80005 10.8407 4.80005 10.3996C4.80005 9.95845 5.15893 9.59961 5.60005 9.59961C6.04117 9.59961 6.40005 9.95845 6.40005 10.3996C6.40005 10.8407 6.04117 11.1996 5.60005 11.1996Z" fill="#ECECFE"/>
<path fill-rule="evenodd" clip-rule="evenodd" d="M40.2973 40.8567C40.7076 41.0208 40.9071 41.4864 40.743 41.8966L37.543 49.8966C37.3789 50.3069 36.9133 50.5064 36.5031 50.3423C36.0929 50.1782 35.8933 49.7126 36.0574 49.3024L39.2574 41.3024C39.4215 40.8922 39.8871 40.6927 40.2973 40.8567ZM46.6973 44.8567C47.1076 45.0208 47.3071 45.4864 47.143 45.8966L45.543 49.8966C45.3789 50.3069 44.9133 50.5064 44.5031 50.3423C44.0929 50.1782 43.8933 49.7126 44.0574 49.3024L45.6574 45.3024C45.8215 44.8922 46.2871 44.6927 46.6973 44.8567Z" fill="#E1000F"/>
<path fill-rule="evenodd" clip-rule="evenodd" d="M28.2973 40.8567C28.7076 41.0208 28.9071 41.4864 28.743 41.8966L25.543 49.8966C25.3789 50.3069 24.9133 50.5064 24.5031 50.3423C24.0929 50.1782 23.8933 49.7126 24.0574 49.3024L27.2574 41.3024C27.4215 40.8922 27.8871 40.6927 28.2973 40.8567Z" fill="#E1000F"/>
<path fill-rule="evenodd" clip-rule="evenodd" d="M16.2973 40.8567C16.7076 41.0208 16.9071 41.4864 16.743 41.8966L13.543 49.8966C13.3789 50.3069 12.9133 50.5064 12.5031 50.3423C12.0929 50.1782 11.8933 49.7126 12.0574 49.3024L15.2574 41.3024C15.4215 40.8922 15.8871 40.6927 16.2973 40.8567Z" fill="#E1000F"/>
<path fill-rule="evenodd" clip-rule="evenodd" d="M25.6002 30.3995C26.9257 30.3995 28.0002 29.325 28.0002 27.9995C28.0002 26.674 26.9257 25.5995 25.6002 25.5995C24.2747 25.5995 23.2002 26.674 23.2002 27.9995C23.2002 29.325 24.2747 30.3995 25.6002 30.3995ZM25.6002 31.9995C27.8093 31.9995 29.6002 30.2087 29.6002 27.9995C29.6002 25.7904 27.8093 23.9995 25.6002 23.9995C23.3911 23.9995 21.6002 25.7904 21.6002 27.9995C21.6002 30.2087 23.3911 31.9995 25.6002 31.9995Z" fill="#E1000F"/>
<path fill-rule="evenodd" clip-rule="evenodd" d="M15.2002 24.7995C15.2002 24.3577 15.5584 23.9995 16.0002 23.9995H19.2002C19.642 23.9995 20.0002 24.3577 20.0002 24.7995C20.0002 25.2413 19.642 25.5995 19.2002 25.5995H16.0002C15.5584 25.5995 15.2002 25.2413 15.2002 24.7995ZM15.2002 27.9995C15.2002 27.5577 15.5584 27.1995 16.0002 27.1995H19.2002C19.642 27.1995 20.0002 27.5577 20.0002 27.9995C20.0002 28.4413 19.642 28.7995 19.2002 28.7995H16.0002C15.5584 28.7995 15.2002 28.4413 15.2002 27.9995ZM15.2002 31.1995C15.2002 30.7577 15.5584 30.3995 16.0002 30.3995H19.2002C19.642 30.3995 20.0002 30.7577 20.0002 31.1995C20.0002 31.6413 19.642 31.9995 19.2002 31.9995H16.0002C15.5584 31.9995 15.2002 31.6413 15.2002 31.1995Z" fill="#E1000F"/>
<path fill-rule="evenodd" clip-rule="evenodd" d="M39.1157 15.4704C39.434 14.3627 40.4472 13.5996 41.5998 13.5996C42.7523 13.5996 43.7655 14.3627 44.0838 15.4704L48.3083 30.1709L51.5244 40.5631L51.5291 40.5787L52.2822 43.1996H55.1998C55.6416 43.1996 55.9998 43.5578 55.9998 43.9996V47.9996C55.9998 48.4414 55.6416 48.7996 55.1998 48.7996H49.5997C49.1579 48.7996 48.7997 48.4414 48.7997 47.9996C48.7997 47.5578 49.1579 47.1996 49.5997 47.1996H54.3998V44.7996H51.6798C51.323 44.7996 51.0094 44.5634 50.9109 44.2206L49.9935 41.0283L48.2099 35.265H40.7998C40.3579 35.265 39.9998 34.9069 39.9998 34.465C39.9998 34.0232 40.3579 33.665 40.7998 33.665H47.7148L46.7774 30.6361L46.7728 30.6206L46.0196 27.9996H37.1799L36.4267 30.6206L36.4221 30.6361L34.1939 37.8361C34.0633 38.2582 33.6152 38.4945 33.1931 38.3639C32.7711 38.2332 32.5348 37.7852 32.6654 37.3631L33.6355 34.2285L34.8912 30.1709L39.1157 15.4704ZM37.6397 26.3996H45.5598L43.9505 20.7996H39.249L37.6397 26.3996ZM39.7088 19.1996H43.4907L42.5461 15.9123C42.4248 15.4903 42.0388 15.1996 41.5998 15.1996C41.1607 15.1996 40.7747 15.4903 40.6534 15.9123L39.7088 19.1996Z" fill="#000091"/>
<path fill-rule="evenodd" clip-rule="evenodd" d="M36.2968 40.8568C36.7071 41.0209 36.9066 41.4865 36.7425 41.8967L33.5425 49.8967C33.3784 50.307 32.9128 50.5065 32.5026 50.3424C32.0924 50.1783 31.8929 49.7127 32.0569 49.3025L35.2569 41.3025C35.421 40.8923 35.8866 40.6927 36.2968 40.8568ZM44.2968 40.8568C44.7071 41.0209 44.9066 41.4865 44.7425 41.8967L41.5425 49.8967C41.3784 50.307 40.9128 50.5065 40.5026 50.3424C40.0924 50.1783 39.8929 49.7127 40.0569 49.3025L43.2569 41.3025C43.421 40.8923 43.8866 40.6927 44.2968 40.8568Z" fill="#000091"/>
<path fill-rule="evenodd" clip-rule="evenodd" d="M24.2968 40.8568C24.7071 41.0209 24.9066 41.4865 24.7425 41.8967L21.5425 49.8967C21.3784 50.307 20.9128 50.5065 20.5026 50.3424C20.0924 50.1783 19.8929 49.7127 20.0569 49.3025L23.2569 41.3025C23.421 40.8923 23.8866 40.6927 24.2968 40.8568ZM32.2968 40.8568C32.7071 41.0209 32.9066 41.4865 32.7425 41.8967L29.5425 49.8967C29.3784 50.307 28.9128 50.5065 28.5026 50.3424C28.0924 50.1783 27.8929 49.7127 28.0569 49.3025L31.2569 41.3025C31.421 40.8923 31.8866 40.6927 32.2968 40.8568Z" fill="#000091"/>
<path fill-rule="evenodd" clip-rule="evenodd" d="M20.2968 40.8568C20.7071 41.0209 20.9066 41.4865 20.7425 41.8967L17.5425 49.8967C17.3784 50.307 16.9128 50.5065 16.5026 50.3424C16.0924 50.1783 15.8929 49.7127 16.0569 49.3025L19.2569 41.3025C19.421 40.8923 19.8866 40.6927 20.2968 40.8568ZM11.4968 42.8568C11.9071 43.0209 12.1066 43.4865 11.9425 43.8967L9.54251 49.8967C9.37842 50.307 8.91284 50.5065 8.50261 50.3424C8.09239 50.1783 7.89285 49.7127 8.05694 49.3025L10.4569 43.3025C10.621 42.8923 11.0866 42.6927 11.4968 42.8568Z" fill="#000091"/>
<path fill-rule="evenodd" clip-rule="evenodd" d="M11.9997 14.3996C11.9997 13.9578 12.3579 13.5996 12.7997 13.5996H35.1997C35.6416 13.5996 35.9997 13.9578 35.9997 14.3996V15.9996C35.9997 16.4414 35.6416 16.7996 35.1997 16.7996C34.7579 16.7996 34.3997 16.4414 34.3997 15.9996V15.1996H13.5997V19.9996H32.7997C33.2416 19.9996 33.5997 20.3578 33.5997 20.7996C33.5997 21.2414 33.2416 21.5996 32.7997 21.5996H13.5997V38.3996C13.5997 38.8414 13.2416 39.1996 12.7997 39.1996C12.3579 39.1996 11.9997 38.8414 11.9997 38.3996V14.3996Z" fill="#000091"/>
<path d="M16.7997 17.5996C16.7997 18.0414 16.4416 18.3996 15.9997 18.3996C15.5579 18.3996 15.1997 18.0414 15.1997 17.5996C15.1997 17.1578 15.5579 16.7996 15.9997 16.7996C16.4416 16.7996 16.7997 17.1578 16.7997 17.5996Z" fill="#000091"/>
<path d="M19.9997 17.5996C19.9997 18.0414 19.6416 18.3996 19.1997 18.3996C18.7579 18.3996 18.3997 18.0414 18.3997 17.5996C18.3997 17.1578 18.7579 16.7996 19.1997 16.7996C19.6416 16.7996 19.9997 17.1578 19.9997 17.5996Z" fill="#000091"/>
<path d="M23.1997 17.5996C23.1997 18.0414 22.8416 18.3996 22.3997 18.3996C21.9579 18.3996 21.5997 18.0414 21.5997 17.5996C21.5997 17.1578 21.9579 16.7996 22.3997 16.7996C22.8416 16.7996 23.1997 17.1578 23.1997 17.5996Z" fill="#000091"/>
<path d="M38.3997 34.3996C38.3997 34.8414 38.0416 35.1996 37.5997 35.1996C37.1579 35.1996 36.7997 34.8414 36.7997 34.3996C36.7997 33.9578 37.1579 33.5996 37.5997 33.5996C38.0416 33.5996 38.3997 33.9578 38.3997 34.3996Z" fill="#000091"/>
</svg>
