<svg width="80" height="80" viewBox="0 0 80 80" fill="none" xmlns="http://www.w3.org/2000/svg">
<path fill-rule="evenodd" clip-rule="evenodd" d="M70 68.9995C69.4486 68.9995 69 68.5509 69 67.9995C69 67.4481 69.4486 66.9995 70 66.9995C70.5514 66.9995 71 67.4481 71 67.9995C71 68.5509 70.5514 68.9995 70 68.9995Z" fill="#ECECFE"/>
<path fill-rule="evenodd" clip-rule="evenodd" d="M68 12.9995C67.4486 12.9995 67 12.5509 67 11.9995C67 11.4481 67.4486 10.9995 68 10.9995C68.5514 10.9995 69 11.4481 69 11.9995C69 12.5509 68.5514 12.9995 68 12.9995Z" fill="#ECECFE"/>
<path fill-rule="evenodd" clip-rule="evenodd" d="M14 68.9995C13.4486 68.9995 13 68.5509 13 67.9995C13 67.4481 13.4486 66.9995 14 66.9995C14.5514 66.9995 15 67.4481 15 67.9995C15 68.5509 14.5514 68.9995 14 68.9995Z" fill="#ECECFE"/>
<path fill-rule="evenodd" clip-rule="evenodd" d="M19.3966 12.0058C19.5956 12.0016 19.7968 11.9995 20 11.9995L20.3032 12.0011C20.4038 12.0021 20.5039 12.0037 20.6034 12.0058L21.1937 12.0245L21.7694 12.0557C22.0534 12.0744 22.3314 12.0978 22.6026 12.1259L23.1355 12.1882C26.014 12.5653 28 13.5061 28 14.9995V20.9995C28 21.5518 27.5523 21.9995 27 21.9995C26.4872 21.9995 26.0645 21.6135 26.0067 21.1161L26 20.9995V17.1256C25.2189 17.4371 24.2433 17.6657 23.1355 17.8108L22.6026 17.8731C22.3314 17.9012 22.0534 17.9246 21.7694 17.9433L21.1937 17.9745L20.6034 17.9933C20.4044 17.9974 20.2032 17.9995 20 17.9995C19.7968 17.9995 19.5956 17.9974 19.3966 17.9933L18.8063 17.9745L18.2306 17.9433C17.9466 17.9246 17.6686 17.9012 17.3974 17.8731L16.8645 17.8108C13.986 17.4337 12 16.493 12 14.9995C12 13.5061 13.986 12.5653 16.8645 12.1882L17.3974 12.1259C17.6686 12.0978 17.9466 12.0744 18.2306 12.0557L18.8063 12.0245L19.3966 12.0058ZM26 14.9995L25.9782 14.9855C25.7511 14.8568 25.4307 14.7265 25.0337 14.6061L24.8288 14.5468C23.5811 14.2017 21.8536 13.9995 20.0005 13.9995C18.1474 13.9995 16.4199 14.2017 15.1722 14.5468C14.7501 14.6636 14.4018 14.7922 14.1441 14.9211L14 14.9995L14.1702 15.0908C14.3811 15.1939 14.6497 15.2966 14.9674 15.3929L15.1722 15.4522C16.4199 15.7974 18.1474 15.9995 20.0005 15.9995C21.8536 15.9995 23.5811 15.7974 24.8288 15.4522C25.2509 15.3354 25.5992 15.2068 25.8569 15.0779L26 14.9995Z" fill="#E1000F"/>
<path d="M59.7317 49.8034C58.6723 48.6587 57.2227 47.9995 55.6751 47.9995C53.2002 47.9995 51.1014 49.6717 50.3231 51.9995H49L48.8834 52.0062C48.386 52.064 48 52.4867 48 52.9995C48 53.5518 48.4477 53.9995 49 53.9995H50C50 54.3401 50.0269 54.6742 50.0785 54.9995H49L48.8834 55.0062C48.386 55.064 48 55.4867 48 55.9995C48 56.5518 48.4477 56.9995 49 56.9995H50.7594C51.7396 58.7914 53.5715 59.9995 55.6751 59.9995C57.087 59.9995 58.4199 59.4511 59.4512 58.4787C59.846 58.1064 59.874 57.4739 59.5138 57.066C59.1535 56.658 58.5414 56.6291 58.1466 57.0013C57.4673 57.6418 56.5979 57.9995 55.6751 57.9995C54.7284 57.9995 53.8618 57.6223 53.2017 56.9995H55L55.1166 56.9928C55.614 56.935 56 56.5123 56 55.9995C56 55.4472 55.5523 54.9995 55 54.9995H52.0532C51.9764 54.6801 51.9355 54.345 51.9355 53.9995H55L55.1166 53.9928C55.614 53.935 56 53.5123 56 52.9995C56 52.4472 55.5523 51.9995 55 51.9995H52.4356C53.0832 50.8024 54.2939 49.9995 55.6751 49.9995C56.6867 49.9995 57.6335 50.4301 58.3329 51.1857C58.7023 51.5849 59.3148 51.599 59.7011 51.2173C60.0874 50.8356 60.1011 50.2026 59.7317 49.8034Z" fill="#E1000F"/>
<path d="M13 19.9995C13.5128 19.9995 13.9355 20.3505 13.9933 20.8026L14 20.9086V39.0904C14 39.5925 13.5523 39.9995 13 39.9995C12.4872 39.9995 12.0645 39.6486 12.0067 39.1964L12 39.0904V20.9086C12 20.4065 12.4477 19.9995 13 19.9995Z" fill="#E1000F"/>
<path d="M13 43.9995C13.5523 43.9995 14 43.5518 14 42.9995C14 42.4472 13.5523 41.9995 13 41.9995C12.4477 41.9995 12 42.4472 12 42.9995C12 43.5518 12.4477 43.9995 13 43.9995Z" fill="#E1000F"/>
<path fill-rule="evenodd" clip-rule="evenodd" d="M60 27.9995C59.7968 27.9995 59.5956 28.0016 59.3966 28.0058L58.8063 28.0245L58.2306 28.0557C57.9466 28.0744 57.6686 28.0978 57.3974 28.1259L56.8645 28.1882C53.986 28.5653 52 29.5061 52 30.9995C52 32.493 53.986 33.4337 56.8645 33.8108L57.3974 33.8731C57.6686 33.9012 57.9466 33.9246 58.2306 33.9433L58.8063 33.9745L59.3966 33.9933C59.5956 33.9974 59.7968 33.9995 60 33.9995C60.2032 33.9995 60.4044 33.9974 60.6034 33.9933L61.1937 33.9745L61.7694 33.9433C62.0534 33.9246 62.3314 33.9012 62.6026 33.8731L63.1355 33.8108C64.2433 33.6657 65.2189 33.4371 66 33.1256V36.9995L66.0067 37.1161C66.0645 37.6135 66.4872 37.9995 67 37.9995C67.5523 37.9995 68 37.5518 68 36.9995V30.9995C68 29.5061 66.014 28.5653 63.1355 28.1882L62.6026 28.1259C62.3314 28.0978 62.0534 28.0744 61.7694 28.0557L61.1937 28.0245L60.6034 28.0058C60.5039 28.0037 60.4038 28.0021 60.3032 28.0011L60 27.9995ZM65.8569 31.0779L66 30.9995L65.9782 30.9855C65.7511 30.8568 65.4307 30.7265 65.0337 30.6061L64.8288 30.5468C63.5811 30.2017 61.8536 29.9995 60.0005 29.9995C58.1474 29.9995 56.4199 30.2017 55.1722 30.5468C54.7501 30.6636 54.4018 30.7922 54.1441 30.9211L54 30.9995L54.1702 31.0908C54.3811 31.1939 54.6497 31.2966 54.9674 31.3929L55.1722 31.4522C56.4199 31.7974 58.1474 31.9995 60.0005 31.9995C61.8536 31.9995 63.5811 31.7974 64.8288 31.4522C65.2509 31.3354 65.5992 31.2068 65.8569 31.0779Z" fill="#E1000F"/>
<path d="M53.9933 34.8829C53.9355 34.3856 53.5128 33.9995 53 33.9995C52.4477 33.9995 52 34.4472 52 34.9995V38.9995L52.0067 39.1161C52.0645 39.6135 52.4872 39.9995 53 39.9995C53.5523 39.9995 54 39.5518 54 38.9995V34.9995L53.9933 34.8829Z" fill="#E1000F"/>
<path fill-rule="evenodd" clip-rule="evenodd" d="M36.662 21.9995L35.994 22.0115C35.8836 22.0145 35.7737 22.018 35.6643 22.022L35.0142 22.0518L34.3775 22.0934C34.0627 22.117 33.7533 22.145 33.45 22.1773L32.8516 22.2476C32.7533 22.2603 32.6557 22.2734 32.5588 22.287L31.9868 22.3742C28.4228 22.9614 26 24.2165 26 25.9988V30.5711L26.0049 30.7194C26.0073 30.7557 26.0106 30.7918 26.0147 30.8277C26.005 30.8836 26 30.941 26 30.9995V35.5711L26.0049 35.7194C26.0073 35.7557 26.0106 35.7918 26.0147 35.8277C26.005 35.8836 26 35.941 26 35.9995V40.5711L26.0049 40.7194C26.0073 40.7555 26.0105 40.7914 26.0146 40.8272C26.005 40.8829 26 40.9402 26 40.9987V45.5702L26.0049 45.7185C26.0141 45.8587 26.0365 45.996 26.0715 46.1304C25.9231 46.1171 25.7734 46.1047 25.6225 46.0934L24.9858 46.0518L24.3357 46.022C24.2263 46.018 24.1164 46.0145 24.006 46.0115L23.338 45.9995H22.662L21.994 46.0115C21.8836 46.0145 21.7737 46.018 21.6643 46.022L21.0142 46.0518L20.3775 46.0934C20.0627 46.117 19.7533 46.145 19.45 46.1773L18.8516 46.2476C18.7533 46.2603 18.6557 46.2734 18.5588 46.287L17.9868 46.3742C14.4228 46.9614 12 48.2165 12 49.9988V54.5705L12.0049 54.7188C12.0073 54.7551 12.0106 54.7913 12.0147 54.8273C12.005 54.8831 12 54.9405 12 54.9991V59.5707L12.0049 59.7189C12.1345 61.6814 14.838 63.0852 18.6512 63.6812L19.2313 63.7645C19.4273 63.7902 19.6259 63.8139 19.8269 63.8355L20.437 63.894C21.2597 63.9636 22.1179 63.9994 23 63.9994C23.8821 63.9994 24.7403 63.9636 25.563 63.894L26.1731 63.8355C26.3741 63.8139 26.5727 63.7902 26.7687 63.7645L27.3488 63.6812C31.0866 63.097 33.7582 61.7365 33.9844 59.8347C34.9383 59.9435 35.9343 59.9995 36.9499 59.9995C39.4401 59.9995 42.4907 59.6812 44.184 59.2032C46.1223 63.2246 50.2371 65.9995 55 65.9995C61.6274 65.9995 67 60.6267 67 53.9991C67 47.3715 61.6274 41.9987 55 41.9987C52.3876 41.9987 49.9702 42.8335 48 44.2509V40.9987L47.9933 40.882C47.9922 40.8727 47.991 40.8635 47.9896 40.8542C47.9883 40.8452 47.9869 40.8362 47.9854 40.8272C47.9951 40.7429 48 40.6575 48 40.5711V35.9995L47.9933 35.8829C47.9911 35.8644 47.9885 35.846 47.9853 35.8277C47.9951 35.7432 48 35.6577 48 35.5711V30.9995L47.9933 30.8829C47.9911 30.8644 47.9885 30.846 47.9853 30.8277C47.9951 30.7432 48 30.6577 48 30.5711V25.9995C48 24.2642 45.703 23.0278 42.2922 22.4219L41.7295 22.3292C41.5388 22.3001 41.345 22.2729 41.1484 22.2476L40.55 22.1773C40.2467 22.145 39.9373 22.117 39.6225 22.0934L38.9858 22.0518L38.3357 22.022C38.2263 22.018 38.1164 22.0145 38.006 22.0115L37.338 21.9995H36.662ZM44.0601 49.0603C43.2475 49.3183 42.3353 49.5265 41.3488 49.6807L40.7687 49.764C40.5727 49.7898 40.3741 49.8134 40.1731 49.835L39.563 49.8936C38.7403 49.9632 37.8821 49.999 37 49.999C36.1179 49.999 35.2597 49.9632 34.437 49.8936L33.9944 49.8511C33.9981 49.8999 34 49.9491 34 49.9988V52.5925C34.9538 52.7112 35.96 52.7728 36.99 52.7728C39.0254 52.7728 41.4511 52.5392 43.137 52.18C43.3036 51.0844 43.6183 50.0374 44.0601 49.0603ZM43.009 54.4671C41.235 54.7974 38.9505 54.9995 36.99 54.9995C35.9608 54.9995 34.9516 54.942 33.9858 54.8304L33.9889 54.8496L33.9916 54.869L33.9933 54.8825L34 54.9991V57.6047C34.9418 57.7203 35.9342 57.7802 36.9499 57.7802C39.1511 57.7802 41.8479 57.512 43.4115 57.1264C43.182 56.2737 43.0441 55.3836 43.009 54.4671ZM28 30.5711V28.4451C28.9631 28.9329 30.2311 29.3133 31.7078 29.5756L32.2705 29.6683C32.4612 29.6974 32.655 29.7246 32.8516 29.7499L33.45 29.8202C33.7533 29.8525 34.0627 29.8805 34.3775 29.9042L35.0142 29.9457L35.6643 29.9755C35.7737 29.9795 35.8836 29.983 35.994 29.986L36.662 29.998C36.7742 29.999 36.8869 29.9995 37 29.9995L37.338 29.998L38.006 29.986C38.1164 29.983 38.2263 29.9795 38.3357 29.9755L38.9858 29.9457L39.6225 29.9042C39.9373 29.8805 40.2467 29.8525 40.55 29.8202L41.1484 29.7499C41.2467 29.7372 41.3443 29.7241 41.4412 29.7105L42.0132 29.6234C43.6094 29.3603 44.9767 28.9634 46 28.4451V30.5711L45.993 30.6322C45.9138 30.9914 45.1613 31.5646 43.7467 32.0496C41.9954 32.6501 39.584 32.9998 37 32.9998C34.416 32.9998 32.0046 32.6501 30.2533 32.0496C28.7555 31.5361 28 30.9236 28 30.5711ZM28.7727 26.6714C28.2764 26.4374 28 26.2038 28 25.9999C28 25.796 28.2764 25.5623 28.7727 25.3283L29.0389 25.2114C29.1336 25.1726 29.2341 25.1338 29.3402 25.0953L29.6749 24.9807C29.7919 24.9429 29.9143 24.9055 30.0417 24.8686L30.4387 24.7596C30.5073 24.7418 30.5772 24.7241 30.6481 24.7066L31.0878 24.604C31.2389 24.5706 31.3943 24.5381 31.5539 24.5066L32.0449 24.4153L32.5591 24.3309C32.6467 24.3174 32.7352 24.3043 32.8245 24.2915L33.3708 24.2189L33.9364 24.1553L34.5198 24.1014C34.7171 24.0851 34.917 24.0706 35.1194 24.058L35.7337 24.0261L36.3611 24.0063C36.4667 24.0041 36.5727 24.0024 36.6792 24.0012L37 23.9995C37.2147 23.9995 37.4278 24.0018 37.6389 24.0063L38.2663 24.0261L38.8806 24.058C39.083 24.0706 39.2829 24.0851 39.4802 24.1014L40.0636 24.1553L40.6292 24.2189L41.1755 24.2915L41.7008 24.3722C41.7865 24.3863 41.8713 24.4006 41.9551 24.4153L42.4461 24.5066C42.5259 24.5223 42.6046 24.5383 42.6823 24.5546L43.1354 24.6547C43.282 24.6889 43.424 24.7239 43.5613 24.7596L43.9583 24.8686C44.022 24.887 44.0845 24.9056 44.1456 24.9243L44.4965 25.0378C44.664 25.0951 44.8191 25.1531 44.9611 25.2114L45.2273 25.3283C45.7236 25.5623 46 25.796 46 25.9999C46 26.2038 45.7236 26.4374 45.2273 26.6714L44.9611 26.7883C44.8664 26.8272 44.7659 26.866 44.6598 26.9045L44.3251 27.019C44.2081 27.0569 44.0857 27.0943 43.9583 27.1312L43.5613 27.2402C43.4927 27.258 43.4228 27.2757 43.3519 27.2932L42.9122 27.3958C42.7611 27.4292 42.6057 27.4617 42.4461 27.4932L41.9551 27.5845L41.4409 27.6689C41.3533 27.6824 41.2648 27.6955 41.1755 27.7083L40.6292 27.7808L40.0636 27.8445L39.4802 27.8984C39.2829 27.9146 39.083 27.9291 38.8806 27.9417L38.2663 27.9737L37.6389 27.9935C37.4278 27.998 37.2147 28.0003 37 28.0003C36.7853 28.0003 36.5722 27.998 36.3611 27.9935L35.7337 27.9737L35.1194 27.9417C34.917 27.9291 34.7171 27.9146 34.5198 27.8984L33.9364 27.8445L33.3708 27.7808L32.8245 27.7083L32.2992 27.6276C32.2135 27.6135 32.1287 27.5991 32.0449 27.5845L31.5539 27.4932C31.4741 27.4774 31.3954 27.4614 31.3177 27.4452L30.8646 27.3451C30.718 27.3109 30.576 27.2759 30.4387 27.2402L30.0417 27.1312C29.978 27.1128 29.9155 27.0942 29.8544 27.0755L29.5035 26.962C29.336 26.9047 29.1809 26.8467 29.0389 26.7883L28.7727 26.6714ZM28 35.5711V33.2432C29.1647 33.8987 30.7734 34.3881 32.6512 34.6816L33.2313 34.7649C33.4273 34.7906 33.6259 34.8143 33.8269 34.8359L34.437 34.8944C35.2597 34.9641 36.1179 34.9999 37 34.9999C37.8821 34.9999 38.7403 34.9641 39.563 34.8944L40.1731 34.8359C40.3741 34.8143 40.5727 34.7906 40.7687 34.7649L41.3488 34.6816C43.2266 34.3881 44.8353 33.8987 46 33.2432V35.5711L45.993 35.6322C45.9138 35.9914 45.1613 36.5646 43.7467 37.0496C41.9954 37.6501 39.584 37.9998 37 37.9998C34.416 37.9998 32.0046 37.6501 30.2533 37.0496C28.7555 36.5361 28 35.9236 28 35.5711ZM32 57.2426C30.8353 57.8981 29.2266 58.3875 27.3488 58.681L26.7687 58.7643C26.5727 58.7901 26.3741 58.8137 26.1731 58.8353L25.563 58.8939C24.7403 58.9635 23.8821 58.9993 23 58.9993C22.1179 58.9993 21.2597 58.9635 20.437 58.8939L19.8269 58.8353C19.6259 58.8137 19.4273 58.7901 19.2313 58.7643L18.6512 58.681C16.7734 58.3875 15.1647 57.8981 14 57.2426V59.5707C14 59.9232 14.7555 60.5356 16.2533 61.0492C18.0046 61.6497 20.416 61.9994 23 61.9994C25.584 61.9994 27.9954 61.6497 29.7467 61.0492C31.1613 60.5642 31.9138 59.991 31.993 59.6318L32 59.5707V57.2426ZM28 38.2432C29.1647 38.8987 30.7734 39.3881 32.6512 39.6816L33.2313 39.7649C33.4273 39.7906 33.6259 39.8143 33.8269 39.8359L34.437 39.8944C35.2597 39.9641 36.1179 39.9999 37 39.9999C37.8821 39.9999 38.7403 39.9641 39.563 39.8944L40.1731 39.8359C40.3741 39.8143 40.5727 39.7906 40.7687 39.7649L41.3488 39.6816C43.2266 39.3881 44.8353 38.8987 46 38.2432V40.5711L45.993 40.6322C45.9138 40.9914 45.1613 41.5646 43.7467 42.0496C41.9954 42.6501 39.584 42.9998 37 42.9998C34.416 42.9998 32.0046 42.6501 30.2533 42.0496C28.7555 41.5361 28 40.9236 28 40.5711V38.2432ZM46 45.5702V43.2432C44.8353 43.8987 43.2266 44.3881 41.3488 44.6816L40.7687 44.7649C40.5727 44.7906 40.3741 44.8143 40.1731 44.8359L39.563 44.8944C38.7403 44.9641 37.8821 44.9999 37 44.9999C36.1179 44.9999 35.2597 44.9641 34.437 44.8944L33.8269 44.8359C33.6259 44.8143 33.4273 44.7906 33.2313 44.7649L32.6512 44.6816C30.7734 44.3881 29.1647 43.8987 28 43.2432V45.5702C28 45.8222 28.386 46.207 29.1534 46.5936C30.2099 46.8287 31.1345 47.1309 31.8851 47.4955C33.3812 47.8189 35.1462 47.9989 37 47.9989C39.584 47.9989 41.9954 47.6492 43.7467 47.0487C45.1613 46.5637 45.9138 45.9905 45.993 45.6313L46 45.5702ZM31.4988 49.4688C30.3806 49.23 29.3864 48.9145 28.5615 48.5297C28.5233 48.5219 28.4848 48.5142 28.4461 48.5066L27.9551 48.4153C27.8713 48.4006 27.7865 48.3863 27.7008 48.3722L27.1755 48.2915L26.6292 48.2189L26.0636 48.1553L25.4802 48.1014C25.2829 48.0851 25.083 48.0706 24.8806 48.058L24.2663 48.0261L23.6389 48.0063C23.4278 48.0018 23.2147 47.9995 23 47.9995L22.6792 48.0012C22.5727 48.0024 22.4667 48.0041 22.3611 48.0063L21.7337 48.0261L21.1194 48.058C20.917 48.0706 20.7171 48.0851 20.5198 48.1014L19.9364 48.1553L19.3708 48.2189L18.8245 48.2915C18.7352 48.3043 18.6467 48.3174 18.5591 48.3309L18.0449 48.4153L17.5539 48.5066C17.3943 48.5381 17.2389 48.5706 17.0878 48.604L16.6481 48.7066C16.5772 48.7241 16.5073 48.7418 16.4387 48.7596L16.0417 48.8686C15.9143 48.9055 15.7919 48.9429 15.6749 48.9807L15.3402 49.0953C15.2341 49.1338 15.1336 49.1726 15.0389 49.2114L14.7727 49.3283C14.2764 49.5623 14 49.796 14 49.9999C14 50.2038 14.2764 50.4374 14.7727 50.6714L15.0389 50.7883C15.1809 50.8467 15.336 50.9047 15.5035 50.962L15.8544 51.0755C15.9155 51.0942 15.978 51.1128 16.0417 51.1312L16.4387 51.2402C16.576 51.2759 16.718 51.3109 16.8646 51.3451L17.3177 51.4452C17.3954 51.4614 17.4741 51.4774 17.5539 51.4932L18.0449 51.5845C18.1287 51.5991 18.2135 51.6135 18.2992 51.6276L18.8245 51.7083L19.3708 51.7808L19.9364 51.8445L20.5198 51.8984C20.7171 51.9146 20.917 51.9291 21.1194 51.9417L21.7337 51.9737L22.3611 51.9935C22.5722 51.998 22.7853 52.0003 23 52.0003C23.2147 52.0003 23.4278 51.998 23.6389 51.9935L24.2663 51.9737L24.8806 51.9417C25.083 51.9291 25.2829 51.9146 25.4802 51.8984L26.0636 51.8445L26.6292 51.7808L27.1755 51.7083C27.2648 51.6955 27.3533 51.6824 27.4409 51.6689L27.9551 51.5845L28.4461 51.4932C28.6057 51.4617 28.7611 51.4292 28.9122 51.3958L29.3519 51.2932C29.4228 51.2757 29.4927 51.258 29.5613 51.2402L29.9583 51.1312C30.0857 51.0943 30.2081 51.0569 30.3251 51.019L30.6598 50.9045C30.7659 50.866 30.8664 50.8272 30.9611 50.7883L31.2273 50.6714C31.7236 50.4374 32 50.2038 32 49.9999C32 49.8369 31.8233 49.6548 31.4988 49.4688ZM32 54.5705V52.4451C30.9767 52.9634 29.6094 53.3603 28.0132 53.6234L27.4412 53.7105C27.3443 53.7241 27.2467 53.7372 27.1484 53.7499L26.55 53.8202C26.2467 53.8525 25.9373 53.8805 25.6225 53.9042L24.9858 53.9457L24.3357 53.9755C24.2263 53.9795 24.1164 53.983 24.006 53.986L23.338 53.998L23 53.9995C22.8869 53.9995 22.7742 53.999 22.662 53.998L21.994 53.986C21.8836 53.983 21.7737 53.9795 21.6643 53.9755L21.0142 53.9457L20.3775 53.9042C20.0627 53.8805 19.7533 53.8525 19.45 53.8202L18.8516 53.7499C18.655 53.7246 18.4612 53.6974 18.2705 53.6683L17.7078 53.5756C16.2311 53.3133 14.9631 52.9329 14 52.4451V54.5705C14 54.9231 14.7555 55.5355 16.2533 56.049C18.0046 56.6495 20.416 56.9992 23 56.9992C25.584 56.9992 27.9954 56.6495 29.7467 56.049C31.1613 55.564 31.9138 54.9908 31.993 54.6316L32 54.5705ZM55 43.9988C60.5229 43.9988 65 48.4761 65 53.9991C65 59.5221 60.5229 63.9994 55 63.9994C49.4772 63.9994 45 59.5221 45 53.9991C45 48.4761 49.4772 43.9988 55 43.9988Z" fill="#000091"/>
<path d="M61.4214 40.0928C60.9205 39.8602 60.3259 40.0777 60.0933 40.5786C59.8606 41.0795 60.0781 41.6742 60.5791 41.9068C65.0635 43.9894 68.0002 48.3545 68.0002 53.0002C68.0002 53.5525 68.448 54.0002 69.0002 54.0002C69.5525 54.0002 70.0002 53.5525 70.0002 53.0002C70.0002 47.5565 66.5954 42.4956 61.4214 40.0928Z" fill="#000091"/>
</svg>
