<svg width="64" height="64" viewBox="0 0 64 64" fill="none" xmlns="http://www.w3.org/2000/svg">
<path fill-rule="evenodd" clip-rule="evenodd" d="M13.6 7.19961C13.1589 7.19961 12.8 6.84073 12.8 6.39961C12.8 5.95845 13.1589 5.59961 13.6 5.59961C14.0412 5.59961 14.4 5.95845 14.4 6.39961C14.4 6.84073 14.0412 7.19961 13.6 7.19961Z" fill="#ECECFE"/>
<path fill-rule="evenodd" clip-rule="evenodd" d="M2.39998 48.7995C1.95886 48.7995 1.59998 48.4406 1.59998 47.9995C1.59998 47.5583 1.95886 47.1995 2.39998 47.1995C2.8411 47.1995 3.19998 47.5583 3.19998 47.9995C3.19998 48.4406 2.8411 48.7995 2.39998 48.7995Z" fill="#ECECFE"/>
<path fill-rule="evenodd" clip-rule="evenodd" d="M53.6 58.3996C53.1589 58.3996 52.8 58.0407 52.8 57.5996C52.8 57.1584 53.1589 56.7996 53.6 56.7996C54.0412 56.7996 54.4 57.1584 54.4 57.5996C54.4 58.0407 54.0412 58.3996 53.6 58.3996Z" fill="#ECECFE"/>
<path fill-rule="evenodd" clip-rule="evenodd" d="M61.6 10.3996C61.1589 10.3996 60.8 10.0407 60.8 9.59956C60.8 9.1584 61.1589 8.79956 61.6 8.79956C62.0412 8.79956 62.4 9.1584 62.4 9.59956C62.4 10.0407 62.0412 10.3996 61.6 10.3996Z" fill="#ECECFE"/>
<path fill-rule="evenodd" clip-rule="evenodd" d="M25.6 55.9994C25.1589 55.9994 24.8 55.6405 24.8 55.1994C24.8 54.7583 25.1589 54.3994 25.6 54.3994C26.0412 54.3994 26.4 54.7583 26.4 55.1994C26.4 55.6405 26.0412 55.9994 25.6 55.9994Z" fill="#ECECFE"/>
<path fill-rule="evenodd" clip-rule="evenodd" d="M23.5228 37.3298C25.6291 38.1958 27.1175 40.0377 27.1966 42.2167L27.2 42.3996H25.6C25.6 40.2202 23.4759 38.3996 20.8 38.3996C18.1877 38.3996 16.1014 40.1345 16.0035 42.2446L16 42.3996H14.4C14.4 40.1411 15.9121 38.22 18.0771 37.3298C17.2914 36.5994 16.8 35.5569 16.8 34.3996C16.8 32.1905 18.5908 30.3996 20.8 30.3996C23.0091 30.3996 24.8 32.1905 24.8 34.3996C24.8 35.5569 24.3085 36.5994 23.5228 37.3298ZM20.8 36.7996C22.1254 36.7996 23.2 35.7251 23.2 34.3996C23.2 33.0741 22.1254 31.9996 20.8 31.9996C19.4745 31.9996 18.4 33.0741 18.4 34.3996C18.4 35.7251 19.4745 36.7996 20.8 36.7996Z" fill="#E1000F"/>
<path fill-rule="evenodd" clip-rule="evenodd" d="M13.6 25.5996H28C29.3254 25.5996 30.4 26.6741 30.4 27.9996V43.9996C30.4 45.3251 29.3254 46.3996 28 46.3996H13.6C12.2745 46.3996 11.2 45.3251 11.2 43.9996V27.9996C11.2 26.6741 12.2745 25.5996 13.6 25.5996ZM28 27.1996H13.6C13.1581 27.1996 12.8 27.5578 12.8 27.9996V43.9996C12.8 44.4414 13.1581 44.7996 13.6 44.7996H28C28.4418 44.7996 28.8 44.4414 28.8 43.9996V27.9996C28.8 27.5578 28.4418 27.1996 28 27.1996Z" fill="#E1000F"/>
<path fill-rule="evenodd" clip-rule="evenodd" d="M10.4 51.1996H12.8C13.24 51.1996 13.6 50.8396 13.6 50.3996C13.6 49.9596 13.24 49.5996 12.8 49.5996H10.4C9.30402 49.5996 8.00002 49.1836 8.00002 47.1996V16.3996C8.00002 15.6796 8.80002 14.3996 10.4 14.3996H38.4C38.84 14.3996 39.2 14.0396 39.2 13.5996C39.2 13.1596 38.84 12.7996 38.4 12.7996H10.4C8.04002 12.7996 6.40002 14.6956 6.40002 16.3996V47.1996C6.40002 50.1516 8.46402 51.1996 10.4 51.1996ZM53.6 51.1996H28.8C28.36 51.1996 28 50.8396 28 50.3996C28 49.9596 28.36 49.5996 28.8 49.5996H53.6C55.2 49.5996 56 48.3196 56 47.5996V16.7996C56 14.8156 54.696 14.3996 53.6 14.3996H46.4C45.96 14.3996 45.6 14.0396 45.6 13.5996C45.6 13.1596 45.96 12.7996 46.4 12.7996H53.6C55.536 12.7996 57.6 13.8476 57.6 16.7996V47.5996C57.6 49.3036 55.96 51.1996 53.6 51.1996ZM12.8 19.1996H16.8V20.7996H12.8V19.1996ZM11.2 17.5996H18.4V22.3996H11.2V17.5996ZM35.2 19.9996C35.2 19.5596 35.56 19.1996 36 19.1996H41.6C42.04 19.1996 42.4 19.5596 42.4 19.9996C42.4 20.4396 42.04 20.7996 41.6 20.7996H36C35.56 20.7996 35.2 20.4396 35.2 19.9996ZM21.6 19.9996C21.6 19.5596 21.96 19.1996 22.4 19.1996H32.8C33.24 19.1996 33.6 19.5596 33.6 19.9996C33.6 20.4396 33.24 20.7996 32.8 20.7996H22.4C21.96 20.7996 21.6 20.4396 21.6 19.9996ZM51.2 19.1996H47.2V20.7996H51.2V19.1996ZM52.8 17.5996H45.6V22.3996H52.8V17.5996ZM34.4 25.5996C33.96 25.5996 33.6 25.9596 33.6 26.3996C33.6 26.8396 33.96 27.1996 34.4 27.1996H40.8C41.24 27.1996 41.6 26.8396 41.6 26.3996C41.6 25.9596 41.24 25.5996 40.8 25.5996H34.4ZM34.4 28.7996C33.96 28.7996 33.6 29.1596 33.6 29.5996C33.6 30.0396 33.96 30.3996 34.4 30.3996H47.2C47.64 30.3996 48 30.0396 48 29.5996C48 29.1596 47.64 28.7996 47.2 28.7996H34.4ZM33.6 32.7996C33.6 32.3596 33.96 31.9996 34.4 31.9996H35.2C35.64 31.9996 36 32.3596 36 32.7996C36 33.2396 35.64 33.5996 35.2 33.5996H34.4C33.96 33.5996 33.6 33.2396 33.6 32.7996ZM34.4 35.1996C33.96 35.1996 33.6 35.5596 33.6 35.9996C33.6 36.4396 33.96 36.7996 34.4 36.7996H39.2C39.64 36.7996 40 36.4396 40 35.9996C40 35.5596 39.64 35.1996 39.2 35.1996H34.4ZM33.6 39.1996C33.6 38.7596 33.96 38.3996 34.4 38.3996H44C44.44 38.3996 44.8 38.7596 44.8 39.1996C44.8 39.6396 44.44 39.9996 44 39.9996H34.4C33.96 39.9996 33.6 39.6396 33.6 39.1996ZM34.4 44.7996C33.96 44.7996 33.6 45.1596 33.6 45.5996C33.6 46.0396 33.96 46.3996 34.4 46.3996H44C44.44 46.3996 44.8 46.0396 44.8 45.5996C44.8 45.1596 44.44 44.7996 44 44.7996H34.4ZM46.4 45.5996C46.4 45.1596 46.76 44.7996 47.2 44.7996H52C52.44 44.7996 52.8 45.1596 52.8 45.5996C52.8 46.0396 52.44 46.3996 52 46.3996H47.2C46.76 46.3996 46.4 46.0396 46.4 45.5996ZM38.4 31.9996C37.96 31.9996 37.6 32.3596 37.6 32.7996C37.6 33.2396 37.96 33.5996 38.4 33.5996H43.2C43.64 33.5996 44 33.2396 44 32.7996C44 32.3596 43.64 31.9996 43.2 31.9996H38.4ZM45.6 32.7996C45.6 32.3596 45.96 31.9996 46.4 31.9996H52C52.44 31.9996 52.8 32.3596 52.8 32.7996C52.8 33.2396 52.44 33.5996 52 33.5996H46.4C45.96 33.5996 45.6 33.2396 45.6 32.7996Z" fill="#000091"/>
</svg>
