<svg width="56" height="56" viewBox="0 0 56 56" fill="none" xmlns="http://www.w3.org/2000/svg">
<path fill-rule="evenodd" clip-rule="evenodd" d="M47.6004 9.09946C47.2144 9.09946 46.9004 8.78544 46.9004 8.39946C46.9004 8.01345 47.2144 7.69946 47.6004 7.69946C47.9864 7.69946 48.3004 8.01345 48.3004 8.39946C48.3004 8.78544 47.9864 9.09946 47.6004 9.09946Z" fill="#ECECFE"/>
<path fill-rule="evenodd" clip-rule="evenodd" d="M28.7 53.1996C28.314 53.1996 28 52.8855 28 52.4996C28 52.1135 28.314 51.7996 28.7 51.7996C29.086 51.7996 29.4 52.1135 29.4 52.4996C29.4 52.8855 29.086 53.1996 28.7 53.1996Z" fill="#ECECFE"/>
<path fill-rule="evenodd" clip-rule="evenodd" d="M10.5008 6.99961C10.1148 6.99961 9.80078 6.68559 9.80078 6.29961C9.80078 5.9136 10.1148 5.59961 10.5008 5.59961C10.8868 5.59961 11.2008 5.9136 11.2008 6.29961C11.2008 6.68559 10.8868 6.99961 10.5008 6.99961Z" fill="#ECECFE"/>
<path fill-rule="evenodd" clip-rule="evenodd" d="M26.1373 32.6048L21.6698 27.3237L21.5841 27.2315C21.0502 26.7157 20.2403 26.7063 19.7074 27.204C19.1448 27.7293 19.0946 28.6264 19.5934 29.2159L25.3306 35.997C25.3672 36.0402 25.4072 36.0804 25.4502 36.1172C25.8912 36.4938 26.5539 36.4417 26.9306 36.0008L39.2023 21.6345L39.2798 21.5347C39.6986 20.9322 39.6191 20.1139 39.0975 19.6221C38.5276 19.0847 37.6447 19.1349 37.1345 19.7321L26.1373 32.6048Z" fill="#E1000F"/>
<path d="M8.00906 31.5245C6.06223 20.4835 13.4345 9.95469 24.4756 8.00785C31.4903 6.77097 38.5211 9.28717 43.1722 14.5078C43.4294 14.7965 43.4039 15.2389 43.1152 15.4961C42.8266 15.7533 42.3841 15.7278 42.1269 15.4391C37.7954 10.5772 31.2504 8.23487 24.7187 9.38658C14.4391 11.1992 7.57522 21.0018 9.38779 31.2814C11.2004 41.561 21.003 48.4249 31.2826 46.6123C41.5622 44.7997 48.4261 34.9971 46.6135 24.7175C46.5464 24.3368 46.8006 23.9737 47.1813 23.9066C47.5621 23.8394 47.9251 24.0937 47.9923 24.4744C49.9391 35.5154 42.5668 46.0442 31.5257 47.991C20.4847 49.9379 9.9559 42.5656 8.00906 31.5245Z" fill="#000091"/>
<path d="M49.1575 32.8465C49.2434 32.4696 49.6187 32.2337 49.9956 32.3197C50.3725 32.4057 50.6084 32.7809 50.5224 33.1578C49.5808 37.2852 47.5183 41.0546 44.5856 44.0789C44.3165 44.3564 43.8733 44.3633 43.5958 44.0941C43.3183 43.825 43.3115 43.3818 43.5806 43.1043C46.336 40.2628 48.2733 36.7223 49.1575 32.8465Z" fill="#000091"/>
<path d="M50.4007 29.3994C50.0141 29.3994 49.7007 29.7128 49.7007 30.0994C49.7007 30.486 50.0141 30.7994 50.4007 30.7994C50.7873 30.7994 51.1007 30.486 51.1007 30.0994C51.1007 29.7128 50.7873 29.3994 50.4007 29.3994Z" fill="#000091"/>
</svg>
