<svg width="56" height="56" viewBox="0 0 56 56" fill="none" xmlns="http://www.w3.org/2000/svg">
<path fill-rule="evenodd" clip-rule="evenodd" d="M47.6004 9.09946C47.2144 9.09946 46.9004 8.78544 46.9004 8.39946C46.9004 8.01345 47.2144 7.69946 47.6004 7.69946C47.9864 7.69946 48.3004 8.01345 48.3004 8.39946C48.3004 8.78544 47.9864 9.09946 47.6004 9.09946Z" fill="#ECECFE"/>
<path fill-rule="evenodd" clip-rule="evenodd" d="M28.7 53.1996C28.314 53.1996 28 52.8855 28 52.4996C28 52.1135 28.314 51.7996 28.7 51.7996C29.086 51.7996 29.4 52.1135 29.4 52.4996C29.4 52.8855 29.086 53.1996 28.7 53.1996Z" fill="#ECECFE"/>
<path fill-rule="evenodd" clip-rule="evenodd" d="M10.5008 6.99961C10.1148 6.99961 9.80078 6.68559 9.80078 6.29961C9.80078 5.9136 10.1148 5.59961 10.5008 5.59961C10.8868 5.59961 11.2008 5.9136 11.2008 6.29961C11.2008 6.68559 10.8868 6.99961 10.5008 6.99961Z" fill="#ECECFE"/>
<path d="M29.3996 23.7994C29.3996 23.0262 28.7728 22.3994 27.9996 22.3994C27.2264 22.3994 26.5996 23.0262 26.5996 23.7994V34.9994C26.5996 35.7726 27.2264 36.3994 27.9996 36.3994C28.7728 36.3994 29.3996 35.7726 29.3996 34.9994V23.7994Z" fill="#E1000F"/>
<path d="M29.3996 40.5994C29.3996 39.8262 28.7728 39.1994 27.9996 39.1994C27.2264 39.1994 26.5996 39.8262 26.5996 40.5994C26.5996 41.3726 27.2264 41.9994 27.9996 41.9994C28.7728 41.9994 29.3996 41.3726 29.3996 40.5994Z" fill="#E1000F"/>
<path d="M27.3732 8.78636C27.6176 8.29759 28.2913 8.27186 28.5809 8.70919L28.6254 8.78636L47.5254 46.5864C47.7459 47.0273 47.4538 47.542 46.9799 47.595L46.8993 47.5994H41.2993C40.9127 47.5994 40.5993 47.286 40.5993 46.8994C40.5993 46.5404 40.8696 46.2446 41.2177 46.2041L41.2993 46.1994H45.766L27.9993 10.6646L10.2319 46.1994H37.0993C37.4583 46.1994 37.7542 46.4696 37.7946 46.8178L37.7993 46.8994C37.7993 47.2584 37.5291 47.5543 37.181 47.5947L37.0993 47.5994H9.09934C8.60636 47.5994 8.27666 47.1079 8.44119 46.6604L8.47324 46.5864L27.3732 8.78636Z" fill="#000091"/>
<path d="M41.9993 32.1994C41.6134 32.1994 41.2993 31.8854 41.2993 31.4994C41.2993 31.1134 41.6134 30.7994 41.9993 30.7994C42.3853 30.7994 42.6993 31.1134 42.6993 31.4994C42.6993 31.8854 42.3853 32.1994 41.9993 32.1994Z" fill="#000091"/>
<path d="M43.9847 33.9155C43.7929 33.6222 43.4074 33.5128 43.0863 33.6733C42.7405 33.8462 42.6003 34.2667 42.7732 34.6125L47.6732 44.4125L47.714 44.4834C47.9058 44.7767 48.2913 44.8861 48.6124 44.7255C48.9582 44.5526 49.0983 44.1321 48.9254 43.7864L44.0254 33.9864L43.9847 33.9155Z" fill="#000091"/>
</svg>
