<svg width="486" height="388" viewBox="0 0 486 388" fill="none" xmlns="http://www.w3.org/2000/svg">
<path fill-rule="evenodd" clip-rule="evenodd" d="M248.508 -15.9962H0C0 53.0744 55.6314 109.069 124.255 109.069H248.508V-15.9962Z" fill="#DFE9FF"/>
<path fill-rule="evenodd" clip-rule="evenodd" d="M249.081 232.223H124.827C193.451 232.223 249.081 287.873 249.081 356.523C249.081 425.172 304.711 480.822 373.335 480.822V107.921H249.081V232.223Z" fill="white"/>
<path fill-rule="evenodd" clip-rule="evenodd" d="M371.903 -141.777C303.439 -141.777 247.935 -86.1056 247.935 -17.4293C247.935 51.2458 192.435 106.919 123.969 106.919C55.5032 106.919 0 162.591 0 231.267V728.658H371.903V728.657H495.871V-266.127C495.871 -197.45 440.369 -141.777 371.903 -141.777Z" fill="#FFB7A5"/>
<path fill-rule="evenodd" clip-rule="evenodd" d="M371.903 355.04C303.439 355.04 247.935 410.713 247.935 479.388C247.935 548.063 192.435 603.736 123.969 603.736C55.5032 603.736 0 659.408 0 728.086V1225.48H495.871V230.692C495.871 299.367 440.369 355.04 371.903 355.04Z" fill="#1F1F1F"/>
<path fill-rule="evenodd" clip-rule="evenodd" d="M249.081 107.922V231.84C249.081 163.401 193.45 107.921 124.828 107.921V231.84C124.828 300.276 180.458 355.756 249.081 355.756V355.757C317.704 355.757 373.334 300.277 373.334 231.84C373.334 163.402 317.704 107.922 249.081 107.922Z" fill="#FF6F4C"/>
</svg>
